<svg xmlns="http://www.w3.org/2000/svg" viewBox="0 0 32 32">
  <path d="M2.6 12.2c-.1 0-.1 0-.2-.1l-.3-.3c0-.1 0-.1.1-.2l.9-.5c.1 0 .1 0 .2.1l.3.3c0 .1 0 .1-.1.2l-.9.5zm-1.4.8c-.1 0-.2 0-.2-.1l-.3-.3c0-.1 0-.2.1-.2l1.5-.8c.1 0 .2 0 .2.1l.3.3c0 .1 0 .2-.1.2l-1.5.8zM28.5 11.5c-.4.2-3 1.8-3.4 2.1l-.9.5c-.3.2-.7.4-1.1.5l-.5.2c-.4.1-.8.1-1.1 0-.5-.2-.7-.7-.7-1.1 0-.6.4-1.3 1-1.6.4-.2 2.8-1.6 3.8-2.2L28.5 11.5zm-13 8.9c0 .4-.1.7-.3 1-.2.3-.4.5-.7.7-.3.2-.6.3-1 .3-.3 0-.7-.1-1-.3-.3-.2-.5-.4-.7-.7-.2-.3-.3-.6-.3-1v-4.8c0-.4.1-.7.3-1 .2-.3.4-.5.7-.7.3-.2.6-.3 1-.3.3 0 .7.1 1 .3.3.2.5.4.7.7.2.3.3.6.3 1v4.8zm-5.8-2.6h1.2v1.8c0 1.5 1.2 2.7 2.7 2.7h.2c1.5 0 2.7-1.2 2.7-2.7v-1.8h1.2v-1.2h-8v1.2zm9.2 0h4.4c.1-1.4-.9-2.7-2.2-2.8-1.4-.1-2.5.9-2.8 2.2l.6.6z" fill="#00ADD8"/>
  <path d="M5.6 13.9c-.8.4-1.3 1.3-1.3 2.2v3.7c0 .9.5 1.8 1.3 2.2l4.5 2.6c.8.4 1.8.4 2.6 0l4.5-2.6c.8-.4 1.3-1.3 1.3-2.2v-3.7c0-.9-.5-1.8-1.3-2.2l-4.5-2.6c-.8-.4-1.8-.4-2.6 0L5.6 13.9z" fill="#00ADD8" opacity=".3"/>
</svg>
