<svg xmlns="http://www.w3.org/2000/svg" viewBox="0 0 32 32">
  <rect width="32" height="32" fill="#F7DF1E"/>
  <path d="M9.2 25.3l2.3-1.4c.4.8.8 1.4 1.7 1.4.9 0 1.4-.3 1.4-1.7v-9.1h2.9v9.1c0 2.8-1.6 4.1-4 4.1-2.1 0-3.4-1.1-4.3-2.4zm9.3-.3l2.3-1.4c.6 1 1.4 1.7 2.7 1.7 1.2 0 1.9-.6 1.9-1.4 0-.9-.8-1.3-2.1-1.8l-.7-.3c-2.1-.9-3.5-2-3.5-4.4 0-2.2 1.7-3.8 4.2-3.8 1.8 0 3.1.6 4 2.3l-2.2 1.4c-.5-.9-1-1.2-1.8-1.2-.8 0-1.4.5-1.4 1.2 0 .9.5 1.2 1.7 1.7l.7.3c2.5 1.1 3.9 2.1 3.9 4.5 0 2.6-2 4-4.7 4-2.6 0-4.3-1.2-5.1-2.8z"/>
</svg>
