<svg xmlns="http://www.w3.org/2000/svg" viewBox="0 0 32 32">
  <path d="M15.9 3C9.7 3 10 5.7 10 5.7v2.7h6v1H7.5S3 9 3 15.2c0 6.3 3.9 6.1 3.9 6.1h2.4v-3s-.1-3.9 3.8-3.9h6.5s3.7.1 3.7-3.6V6.9S23.9 3 15.9 3zm-3.6 2.1c.7 0 1.2.5 1.2 1.2s-.5 1.2-1.2 1.2-1.2-.5-1.2-1.2.5-1.2 1.2-1.2z" fill="#3776AB"/>
  <path d="M16.1 29c6.2 0 5.9-2.7 5.9-2.7v-2.7h-6v-1h8.5s4.5.4 4.5-5.8c0-6.3-3.9-6.1-3.9-6.1h-2.4v3s.1 3.9-3.8 3.9H12.4s-3.7-.1-3.7 3.6v5.9S8.1 29 16.1 29zm3.6-2.1c-.7 0-1.2-.5-1.2-1.2s.5-1.2 1.2-1.2 1.2.5 1.2 1.2-.5 1.2-1.2 1.2z" fill="#FFD43B"/>
</svg>
